<svg width="800" height="800" viewBox="0 0 800 800" fill="none" xmlns="http://www.w3.org/2000/svg">
<path d="M337.5 295.833C337.5 261.316 365.483 233.333 400 233.333C434.517 233.333 462.5 261.316 462.5 295.833C462.5 318.748 450.167 338.783 431.78 349.663C415.933 359.037 400 373.257 400 391.667V433.333" stroke="black" stroke-width="66" stroke-linecap="round"/>
<path d="M400.5 583C423.42 583 442 564.42 442 541.5C442 518.58 423.42 500 400.5 500C377.58 500 359 518.58 359 541.5C359 564.42 377.58 583 400.5 583Z" fill="black"/>
<mask id="path-3-inside-1_913_4" fill="white">
<path d="M233.333 111.261C282.362 82.899 339.287 66.6666 400 66.6666C584.093 66.6666 733.333 215.905 733.333 400C733.333 584.093 584.093 733.333 400 733.333C215.905 733.333 66.6666 584.093 66.6666 400C66.6666 339.287 82.899 282.362 111.261 233.333"/>
</mask>
<path d="M200.786 54.9962C169.712 72.9715 159.094 112.734 177.069 143.808C195.044 174.882 234.806 185.5 265.88 167.525L200.786 54.9962ZM167.525 265.88C185.5 234.806 174.882 195.044 143.808 177.069C112.734 159.094 72.9715 169.712 54.9962 200.786L167.525 265.88ZM265.88 167.525C305.282 144.732 351.018 131.667 400 131.667V1.66663C327.555 1.66663 259.442 21.0657 200.786 54.9962L265.88 167.525ZM400 131.667C548.195 131.667 668.333 251.804 668.333 400H798.333C798.333 180.006 619.992 1.66663 400 1.66663V131.667ZM668.333 400C668.333 548.195 548.195 668.333 400 668.333V798.333C619.992 798.333 798.333 619.992 798.333 400H668.333ZM400 668.333C251.804 668.333 131.667 548.195 131.667 400H1.66663C1.66663 619.992 180.006 798.333 400 798.333V668.333ZM131.667 400C131.667 351.018 144.732 305.282 167.525 265.88L54.9962 200.786C21.0657 259.442 1.66663 327.555 1.66663 400H131.667Z" fill="black" mask="url(#path-3-inside-1_913_4)"/>
<path d="M200.786 54.9962C169.712 72.9715 159.094 112.734 177.069 143.808C195.044 174.882 234.806 185.5 265.88 167.525L200.786 54.9962ZM167.525 265.88C185.5 234.806 174.882 195.044 143.808 177.069C112.734 159.094 72.9715 169.712 54.9962 200.786L167.525 265.88ZM265.88 167.525C305.282 144.732 351.018 131.667 400 131.667V1.66663C327.555 1.66663 259.442 21.0657 200.786 54.9962L265.88 167.525ZM400 131.667C548.195 131.667 668.333 251.804 668.333 400H798.333C798.333 180.006 619.992 1.66663 400 1.66663V131.667ZM668.333 400C668.333 548.195 548.195 668.333 400 668.333V798.333C619.992 798.333 798.333 619.992 798.333 400H668.333ZM400 668.333C251.804 668.333 131.667 548.195 131.667 400H1.66663C1.66663 619.992 180.006 798.333 400 798.333V668.333ZM131.667 400C131.667 351.018 144.732 305.282 167.525 265.88L54.9962 200.786C21.0657 259.442 1.66663 327.555 1.66663 400H131.667Z" fill="black" fill-opacity="0.2" mask="url(#path-3-inside-1_913_4)"/>
</svg>
