<svg width="48" height="48" viewBox="0 0 48 48" fill="none" xmlns="http://www.w3.org/2000/svg">
<path d="M14.25 38C11.6256 38 9.52375 40.1256 9.52375 42.75C9.52375 45.3744 11.6256 47.5 14.25 47.5C16.8744 47.5 19 45.3744 19 42.75C19 40.1256 16.8744 38 14.25 38ZM38 38C35.3756 38 33.2738 40.1256 33.2738 42.75C33.2738 45.3744 35.3756 47.5 38 47.5C40.6244 47.5 42.75 45.3744 42.75 42.75C42.75 40.1256 40.6244 38 38 38ZM14.6656 30.2812C14.6656 30.1744 14.6894 30.0794 14.7369 29.9963L16.8744 26.125H34.5681C36.3494 26.125 37.905 25.1394 38.7244 23.6788L47.8919 7.03L43.7356 4.75H43.7238L41.0994 9.5L34.5563 21.375H17.8956L17.5869 20.7337L12.255 9.5L9.99875 4.75L7.75437 0H0V4.75H4.75L13.3 22.7644L10.0819 28.5831C9.71375 29.2719 9.5 30.0438 9.5 30.875C9.5 33.4994 11.6256 35.625 14.25 35.625H42.75V30.875H15.2594C14.9269 30.875 14.6656 30.6138 14.6656 30.2812Z" fill="black"/>
</svg>
