<svg width="124" height="124" viewBox="0 0 124 124" fill="none" xmlns="http://www.w3.org/2000/svg">
<path d="M69.7499 69.7502V21.6577C69.7499 19.5149 67.9945 18.8135 65.8749 19.8404L57.036 23.727C55.0365 24.6996 54.2499 26.1992 54.2499 28.0166V69.7502H69.7499ZM85.2498 69.7502V2.36416C85.2498 0.22129 83.4945 -0.480083 81.3748 0.546789L72.536 4.4334C70.5365 5.40215 69.7499 6.90565 69.7499 8.71914V69.7502H85.2498ZM38.75 69.7502V10.1141C38.75 7.97127 36.9946 7.2699 34.875 8.29677L26.0361 12.1834C24.0366 13.1521 23.25 14.6556 23.25 16.4691V69.7502H38.75ZM38.75 69.7502V2.28278C38.75 0.139915 40.5053 -0.561458 42.625 0.465414L51.4638 4.35203C53.4633 5.32465 54.2499 6.82427 54.2499 8.64164V69.7502H38.75ZM85.2498 69.7502V13.9891C85.2498 11.8463 87.0052 11.1449 89.1248 12.1718L97.9637 16.0584C99.9632 17.0271 100.75 18.5306 100.75 20.3441V69.7502H85.2498Z" fill="#EDD87E"/>
<path d="M85.2498 13.9886V69.7497H89.1248V12.1712C87.0052 11.1405 85.2498 11.8457 85.2498 13.9886ZM38.75 2.3636V69.7497H42.625V0.546228C40.5053 -0.484519 38.75 0.220729 38.75 2.3636ZM54.2499 28.016V69.7497H58.1249V23.2498L57.036 23.7303C55.0365 24.699 54.2499 26.1987 54.2499 28.016ZM69.7499 8.64496V69.7497H73.6249V3.87484L72.536 4.35534C70.5365 5.32797 69.7499 6.82759 69.7499 8.64496ZM23.25 16.3949V69.7497H27.125V11.6248L26.0361 12.1092C24.0366 13.0779 23.25 14.5776 23.25 16.3949Z" fill="black"/>
<path d="M85.2498 46.5C85.2498 52.6663 82.8003 58.58 78.4401 62.9402C74.0799 67.3004 68.1662 69.7499 61.9999 69.7499C55.8336 69.7499 49.9199 67.3004 45.5597 62.9402C41.1995 58.58 38.75 52.6663 38.75 46.5H19.375L23.25 116.25C23.25 118.305 24.0665 120.276 25.5199 121.73C26.9733 123.183 28.9445 124 31 124H92.9998C95.0552 124 97.0265 123.183 98.4799 121.73C99.9333 120.276 100.75 118.305 100.75 116.25L104.625 46.5H85.2498Z" fill="#EF4D4D"/>
<path d="M62.0003 65.8744C57.8213 65.8746 53.6991 64.9066 49.957 63.0463C46.2149 61.1861 42.9547 58.4841 40.4321 55.1523C43.8654 63.7044 52.2237 69.7494 62.0003 69.7494C66.6417 69.7471 71.1762 68.3557 75.0201 65.7542C78.8639 63.1527 81.8411 59.4603 83.5685 55.1523C81.0463 58.4845 77.7862 61.1868 74.044 63.0472C70.3018 64.9075 66.1794 65.8752 62.0003 65.8744Z" fill="black"/>
<path d="M100.75 112.375C100.75 114.43 99.933 116.402 98.4796 117.855C97.0262 119.308 95.055 120.125 92.9995 120.125H30.9997C28.9443 120.125 26.973 119.308 25.5196 117.855C24.0662 116.402 23.2497 114.43 23.2497 112.375H23.0327L23.2497 116.25C23.2497 118.305 24.0662 120.277 25.5196 121.73C26.973 123.183 28.9443 124 30.9997 124H92.9995C95.055 124 97.0262 123.183 98.4796 121.73C99.933 120.277 100.75 118.305 100.75 116.25L100.967 112.375H100.75ZM61.9996 77.5C57.8888 77.5 53.9463 79.133 51.0395 82.0398C48.1327 84.9466 46.4997 88.8891 46.4997 93C46.4997 97.1108 48.1327 101.053 51.0395 103.96C53.9463 106.867 57.8888 108.5 61.9996 108.5C66.1105 108.5 70.0529 106.867 72.9597 103.96C75.8666 101.053 77.4996 97.1108 77.4996 93C77.4996 88.8891 75.8666 84.9466 72.9597 82.0398C70.0529 79.133 66.1105 77.5 61.9996 77.5ZM61.9996 104.625C58.9684 104.547 56.0877 103.288 53.9715 101.116C51.8553 98.9444 50.671 96.0321 50.671 93C50.671 89.9678 51.8553 87.0555 53.9715 84.8839C56.0877 82.7124 58.9684 81.4533 61.9996 81.375C65.0308 81.4533 67.9115 82.7124 70.0277 84.8839C72.1439 87.0555 73.3283 89.9678 73.3283 93C73.3283 96.0321 72.1439 98.9444 70.0277 101.116C67.9115 103.288 65.0308 104.547 61.9996 104.625Z" fill="black"/>
</svg>
