<svg width="215" height="215" viewBox="0 0 215 215" fill="none" xmlns="http://www.w3.org/2000/svg">
<g clip-path="url(#clip0_1033_222)">
<path d="M40.5649 203.121C48.175 210.725 58.493 214.997 69.2512 214.997C80.0094 214.997 90.3273 210.725 97.9374 203.121L203.116 97.9428C210.72 90.3327 214.992 80.0147 214.992 69.2566C214.992 58.4984 210.72 48.1804 203.116 40.5703L40.5649 203.121Z" fill="#E29460"/>
<path d="M198.326 93.1661L93.1609 198.331C86.3791 205.102 77.4194 209.252 67.8696 210.048C58.3199 210.844 48.7968 208.233 40.9882 202.678L40.5649 203.114C48.175 210.719 58.493 214.99 69.2512 214.99C80.0094 214.99 90.3273 210.719 97.9374 203.114L203.116 97.936C210.72 90.3259 214.992 80.0079 214.992 69.2497C214.992 58.4916 210.72 48.1736 203.116 40.5635L202.679 40.9867C208.232 48.7976 210.842 58.322 210.045 67.8725C209.248 77.4231 205.097 86.3834 198.326 93.1661Z" fill="black"/>
<path d="M174.423 11.8768C166.813 4.27252 156.495 0.000976563 145.737 0.000976562C134.978 0.000976563 124.66 4.27252 117.05 11.8768L11.8719 117.055C4.26764 124.665 -0.00390625 134.983 -0.00390625 145.741C-0.00390625 156.5 4.26764 166.818 11.8719 174.428L174.423 11.8768Z" fill="#E29460"/>
<path d="M174.423 21.451L21.4451 174.429C20.1877 175.683 19.1902 177.173 18.5095 178.813C17.8289 180.454 17.4785 182.212 17.4785 183.988C17.4785 185.764 17.8289 187.523 18.5095 189.163C19.1902 190.804 20.1877 192.294 21.4451 193.548C22.6994 194.806 24.1895 195.803 25.8299 196.484C27.4703 197.164 29.2289 197.515 31.0049 197.515C32.781 197.515 34.5396 197.164 36.18 196.484C37.8204 195.803 39.3104 194.806 40.5648 193.548L193.542 40.5706C194.8 39.3163 195.797 37.8263 196.478 36.1858C197.159 34.5454 197.509 32.7868 197.509 31.0108C197.509 29.2348 197.159 27.4762 196.478 25.8358C195.797 24.1953 194.8 22.7053 193.542 21.451C192.288 20.1936 190.798 19.196 189.158 18.5154C187.517 17.8347 185.759 17.4844 183.983 17.4844C182.207 17.4844 180.448 17.8347 178.807 18.5154C177.167 19.196 175.677 20.1936 174.423 21.451Z" fill="#EF4D4D"/>
<path d="M155.303 40.5708C154.047 41.8266 153.05 43.3175 152.371 44.9584C151.691 46.5992 151.341 48.3579 151.341 50.134C151.341 51.9101 151.691 53.6688 152.371 55.3096C153.05 56.9505 154.047 58.4414 155.303 59.6972C155.93 60.3249 156.428 61.0701 156.768 61.8903C157.108 62.7104 157.283 63.5894 157.283 64.4771C157.283 65.3648 157.108 66.2439 156.768 67.064C156.428 67.8841 155.93 68.6293 155.303 69.257C154.675 69.8848 153.93 70.3827 153.11 70.7224C152.29 71.0621 151.411 71.237 150.523 71.237C149.635 71.237 148.756 71.0621 147.936 70.7224C147.116 70.3827 146.371 69.8848 145.743 69.257C144.487 68.0012 142.996 67.005 141.355 66.3253C139.714 65.6457 137.956 65.2958 136.18 65.2958C132.593 65.2958 129.153 66.7207 126.616 69.257C125.361 70.5129 124.364 72.0038 123.685 73.6447C123.005 75.2855 122.655 77.0442 122.655 78.8202C122.655 82.4071 124.08 85.8471 126.616 88.3834C127.244 89.0112 127.742 89.7564 128.082 90.5765C128.422 91.3966 128.596 92.2757 128.596 93.1634C128.596 94.0511 128.422 94.9301 128.082 95.7502C127.742 96.5704 127.244 97.3156 126.616 97.9433C125.989 98.571 125.244 99.0689 124.423 99.4086C123.603 99.7483 122.724 99.9232 121.837 99.9232C120.949 99.9232 120.07 99.7483 119.25 99.4086C118.43 99.0689 117.684 98.571 117.057 97.9433L117.05 97.95C115.796 96.6926 114.306 95.6951 112.665 95.0144C111.025 94.3338 109.266 93.9834 107.49 93.9834C105.714 93.9834 103.955 94.3338 102.315 95.0144C100.675 95.6951 99.1846 96.6926 97.9302 97.95C96.6729 99.2043 95.6753 100.694 94.9947 102.335C94.314 103.975 93.9637 105.734 93.9637 107.51C93.9637 109.286 94.314 111.044 94.9947 112.685C95.6753 114.325 96.6729 115.815 97.9302 117.07C100.57 119.71 100.57 123.989 97.937 126.636C96.6663 127.903 94.9449 128.615 93.1503 128.615C91.3557 128.615 89.6344 127.903 88.3637 126.636C85.8274 124.1 82.3874 122.675 78.8005 122.675C75.2136 122.675 71.7736 124.1 69.2373 126.636C66.701 129.173 65.2761 132.613 65.2761 136.199C65.2761 139.786 66.701 143.226 69.2373 145.763C70.5041 147.029 71.2158 148.748 71.2158 150.539C71.2158 152.331 70.5041 154.049 69.2373 155.316C67.9705 156.583 66.2523 157.294 64.4607 157.294C62.6692 157.294 60.951 156.583 59.6842 155.316L59.6774 155.322C57.1411 152.786 53.7011 151.361 50.1143 151.361C46.5274 151.361 43.0874 152.786 40.5511 155.322C38.0147 157.859 36.5898 161.299 36.5898 164.886C36.5898 168.473 38.0147 171.913 40.5511 174.449L42.936 176.834C43.2496 177.148 43.622 177.397 44.032 177.567C44.4419 177.737 44.8814 177.825 45.3252 177.825C45.7691 177.826 46.2087 177.739 46.6189 177.569C47.029 177.399 47.4018 177.151 47.7159 176.837C48.03 176.524 48.2792 176.151 48.4493 175.741C48.6195 175.331 48.7072 174.892 48.7075 174.448C48.7078 174.004 48.6207 173.564 48.4512 173.154C48.2816 172.744 48.0329 172.371 47.7193 172.057L45.3343 169.666C44.092 168.392 43.4017 166.679 43.4129 164.9C43.4241 163.121 44.136 161.417 45.3942 160.159C46.6525 158.901 48.3558 158.189 50.1353 158.178C51.9147 158.166 53.6269 158.857 54.9009 160.099V160.092C57.4607 162.502 60.8582 163.82 64.3734 163.768C67.8886 163.715 71.2451 162.295 73.7314 159.81C76.2177 157.324 77.6384 153.968 77.6924 150.453C77.7464 146.938 76.4294 143.54 74.0206 140.979C73.3917 140.352 72.8928 139.606 72.5523 138.785C72.2119 137.965 72.0367 137.085 72.0367 136.196C72.0367 135.308 72.2119 134.428 72.5523 133.607C72.8928 132.786 73.3917 132.041 74.0206 131.413C74.6483 130.784 75.3939 130.285 76.2147 129.945C77.0354 129.604 77.9153 129.429 78.8038 129.429C79.6924 129.429 80.5723 129.604 81.393 129.945C82.2138 130.285 82.9594 130.784 83.5871 131.413C86.1479 133.828 89.5488 135.149 93.0681 135.098C96.5875 135.046 99.9481 133.625 102.437 131.136C104.926 128.647 106.347 125.287 106.398 121.767C106.45 118.248 105.128 114.847 102.714 112.286C102.084 111.66 101.585 110.916 101.244 110.096C100.903 109.277 100.728 108.398 100.728 107.51C100.728 106.622 100.903 105.743 101.244 104.923C101.585 104.104 102.084 103.359 102.714 102.733C103.34 102.104 104.084 101.605 104.904 101.264C105.723 100.923 106.602 100.748 107.49 100.748C108.378 100.748 109.257 100.923 110.076 101.264C110.896 101.605 111.641 102.104 112.267 102.733L112.28 102.727C114.841 105.135 118.239 106.452 121.754 106.398C125.269 106.344 128.625 104.924 131.11 102.437C133.596 99.9511 135.015 96.5946 135.068 93.0794C135.121 89.5642 133.803 86.1667 131.393 83.6069C130.151 82.3329 129.46 80.6207 129.472 78.8413C129.483 77.0618 130.195 75.3585 131.453 74.1002C132.711 72.842 134.415 72.1301 136.194 72.1189C137.973 72.1077 139.686 72.798 140.96 74.0403C142.215 75.2957 143.705 76.2916 145.346 76.971C146.986 77.6504 148.744 78.0001 150.519 78.0001C152.295 78.0001 154.053 77.6504 155.693 76.971C157.333 76.2916 158.824 75.2957 160.079 74.0403C161.335 72.7849 162.331 71.2945 163.01 69.6542C163.689 68.014 164.039 66.2559 164.039 64.4805C164.039 62.7051 163.689 60.947 163.01 59.3067C162.331 57.6665 161.335 56.1761 160.079 54.9206C158.837 53.6466 158.147 51.9344 158.158 50.155C158.169 48.3756 158.881 46.6722 160.139 45.414C161.397 44.1557 163.101 43.4439 164.88 43.4327C166.66 43.4214 168.372 44.1118 169.646 45.3541L172.037 47.739C172.352 48.0526 172.724 48.3013 173.135 48.4709C173.545 48.6405 173.984 48.7276 174.428 48.7273C174.872 48.727 175.311 48.6392 175.721 48.4691C176.131 48.2989 176.504 48.0497 176.817 47.7357C177.131 47.4216 177.38 47.0488 177.549 46.6386C177.719 46.2284 177.806 45.7888 177.806 45.345C177.805 44.9011 177.718 44.4617 177.547 44.0517C177.377 43.6418 177.128 43.2694 176.814 42.9557L174.429 40.5708C173.174 39.314 171.683 38.317 170.042 37.6368C168.401 36.9566 166.642 36.6064 164.866 36.6064C163.09 36.6064 161.331 36.9566 159.69 37.6368C158.049 38.317 156.558 39.314 155.303 40.5708Z" fill="#EACA44"/>
<path d="M188.759 35.7944L35.7881 188.765C33.6714 190.878 30.9117 192.227 27.944 192.599C24.9763 192.972 21.969 192.346 19.396 190.821C19.9603 191.802 20.6187 192.722 21.4517 193.549C22.7061 194.806 24.1961 195.803 25.8365 196.484C27.477 197.165 29.2355 197.515 31.0116 197.515C32.7876 197.515 34.5462 197.165 36.1866 196.484C37.827 195.803 39.3171 194.806 40.5714 193.549L193.542 40.5709C194.8 39.3166 195.797 37.8266 196.478 36.1861C197.159 34.5457 197.509 32.7871 197.509 31.0111C197.509 29.2351 197.159 27.4765 196.478 25.836C195.797 24.1956 194.8 22.7056 193.542 21.4512C192.729 20.6478 191.811 19.9565 190.815 19.3955C192.34 21.9696 192.966 24.9779 192.594 27.9468C192.222 30.9157 190.873 33.6765 188.759 35.7944Z" fill="black"/>
<path d="M100.726 50.3454C100.726 51.2362 101.079 52.0906 101.709 52.7206C102.339 53.3505 103.194 53.7044 104.085 53.7044C104.976 53.7044 105.83 53.3505 106.46 52.7206C107.09 52.0906 107.444 51.2362 107.444 50.3454C107.444 49.4545 107.09 48.6001 106.46 47.9702C105.83 47.3402 104.976 46.9863 104.085 46.9863C103.194 46.9863 102.339 47.3402 101.709 47.9702C101.079 48.6001 100.726 49.4545 100.726 50.3454Z" fill="white"/>
<path d="M127.598 36.9088C127.598 37.7997 127.952 38.6541 128.581 39.2841C129.211 39.914 130.066 40.2679 130.957 40.2679C131.848 40.2679 132.702 39.914 133.332 39.2841C133.962 38.6541 134.316 37.7997 134.316 36.9088C134.316 36.018 133.962 35.1636 133.332 34.5336C132.702 33.9037 131.848 33.5498 130.957 33.5498C130.066 33.5498 129.211 33.9037 128.581 34.5336C127.952 35.1636 127.598 36.018 127.598 36.9088Z" fill="white"/>
<path d="M100.726 63.7819C100.726 64.6728 101.079 65.5272 101.709 66.1571C102.339 66.787 103.194 67.1409 104.085 67.1409C104.976 67.1409 105.83 66.787 106.46 66.1571C107.09 65.5272 107.444 64.6728 107.444 63.7819C107.444 62.891 107.09 62.0366 106.46 61.4067C105.83 60.7768 104.976 60.4229 104.085 60.4229C103.194 60.4229 102.339 60.7768 101.709 61.4067C101.079 62.0366 100.726 62.891 100.726 63.7819Z" fill="white"/>
<path d="M67.1348 83.9362C67.1348 84.8271 67.4887 85.6814 68.1186 86.3114C68.7485 86.9413 69.6029 87.2952 70.4938 87.2952C71.3847 87.2952 72.2391 86.9413 72.869 86.3114C73.499 85.6814 73.8529 84.8271 73.8529 83.9362C73.8529 83.0453 73.499 82.1909 72.869 81.561C72.2391 80.931 71.3847 80.5771 70.4938 80.5771C69.6029 80.5771 68.7485 80.931 68.1186 81.561C67.4887 82.1909 67.1348 83.0453 67.1348 83.9362Z" fill="white"/>
<path d="M53.6987 110.808C53.6987 111.699 54.0526 112.554 54.6826 113.183C55.3125 113.813 56.1669 114.167 57.0578 114.167C57.9486 114.167 58.803 113.813 59.433 113.183C60.0629 112.554 60.4168 111.699 60.4168 110.808C60.4168 109.917 60.0629 109.063 59.433 108.433C58.803 107.803 57.9486 107.449 57.0578 107.449C56.1669 107.449 55.3125 107.803 54.6826 108.433C54.0526 109.063 53.6987 109.917 53.6987 110.808Z" fill="white"/>
<path d="M26.8262 124.244C26.8262 124.685 26.9131 125.122 27.0819 125.529C27.2507 125.937 27.4981 126.307 27.81 126.619C28.1219 126.931 28.4922 127.178 28.8998 127.347C29.3073 127.516 29.7441 127.603 30.1852 127.603C30.6263 127.603 31.0631 127.516 31.4707 127.347C31.8782 127.178 32.2485 126.931 32.5604 126.619C32.8723 126.307 33.1198 125.937 33.2886 125.529C33.4574 125.122 33.5443 124.685 33.5443 124.244C33.5443 123.803 33.4574 123.366 33.2886 122.958C33.1198 122.551 32.8723 122.181 32.5604 121.869C32.2485 121.557 31.8782 121.309 31.4707 121.14C31.0631 120.972 30.6263 120.885 30.1852 120.885C29.7441 120.885 29.3073 120.972 28.8998 121.14C28.4922 121.309 28.1219 121.557 27.81 121.869C27.4981 122.181 27.2507 122.551 27.0819 122.958C26.9131 123.366 26.8262 123.803 26.8262 124.244Z" fill="white"/>
</g>
<defs>
<clipPath id="clip0_1033_222">
<rect width="215" height="215" fill="white"/>
</clipPath>
</defs>
</svg>
