<svg width="161" height="81" viewBox="0 0 161 81" fill="none" xmlns="http://www.w3.org/2000/svg">
<path d="M0 53.5938C0 60.68 2.815 67.476 7.82574 72.4868C10.3068 74.9678 13.2523 76.9359 16.4939 78.2787C19.7356 79.6214 23.21 80.3125 26.7188 80.3125H133.594C140.68 80.3125 147.476 77.4975 152.487 72.4868C157.497 67.476 160.312 60.68 160.312 53.5938H0Z" fill="#E29460"/>
<path d="M133.594 74.9688H26.7188C20.5602 74.9688 14.5907 72.8413 9.82026 68.9463C5.04984 65.0513 1.77143 59.6279 0.539719 53.5938H0C0 60.68 2.815 67.476 7.82574 72.4868C10.3068 74.9678 13.2523 76.9359 16.4939 78.2787C19.7356 79.6214 23.21 80.3125 26.7188 80.3125H133.594C140.68 80.3125 147.476 77.4975 152.487 72.4868C157.497 67.476 160.312 60.68 160.312 53.5938H159.773C158.541 59.6279 155.263 65.0513 150.492 68.9463C145.722 72.8413 139.752 74.9688 133.594 74.9688Z" fill="black"/>
<path d="M0 42.9062H160.312V48.25H0V42.9062Z" fill="#469FCC"/>
<path d="M62.292 42.5273L41.1842 63.6352C40.6884 64.1318 40.0995 64.5259 39.4512 64.7947C38.8029 65.0636 38.108 65.2019 37.4062 65.2019C36.7043 65.2019 36.0094 65.0636 35.3611 64.7947C34.7129 64.5259 34.124 64.1318 33.6281 63.6352L12.5203 42.5273H8.4751L34.0075 68.0598C34.5034 68.5565 35.0923 68.9505 35.7405 69.2193C36.3888 69.4882 37.0838 69.6266 37.7856 69.6266C38.4874 69.6266 39.1823 69.4882 39.8306 69.2193C40.4789 68.9505 41.0678 68.5565 41.5636 68.0598L67.096 42.5273H62.292Z" fill="black"/>
<path d="M33.6283 63.6352C34.1242 64.1318 34.7131 64.5259 35.3613 64.7947C36.0096 65.0636 36.7045 65.2019 37.4064 65.2019C38.1082 65.2019 38.8031 65.0636 39.4514 64.7947C40.0996 64.5259 40.6885 64.1318 41.1844 63.6352L62.2922 42.5273H12.5205L33.6283 63.6352ZM89.9247 42.5273L105.309 57.912C105.805 58.4087 106.394 58.8027 107.042 59.0716C107.691 59.3404 108.386 59.4788 109.087 59.4788C109.789 59.4788 110.484 59.3404 111.132 59.0716C111.781 58.8027 112.37 58.4087 112.865 57.912L128.25 42.5273H89.9247Z" fill="#EDD87E"/>
<path d="M80.1777 0C37.4277 0 0.0214844 16.0312 0.0214844 37.4062H160.334C160.334 16.0312 122.928 0 80.1777 0Z" fill="#E29460"/>
<path d="M112.24 18.7031C112.24 19.4118 112.522 20.0914 113.023 20.5924C113.524 21.0935 114.203 21.375 114.912 21.375C115.621 21.375 116.3 21.0935 116.801 20.5924C117.302 20.0914 117.584 19.4118 117.584 18.7031C117.584 17.9945 117.302 17.3149 116.801 16.8138C116.3 16.3128 115.621 16.0312 114.912 16.0313C114.203 16.0312 113.524 16.3128 113.023 16.8138C112.522 17.3149 112.24 17.9945 112.24 18.7031Z" fill="black"/>
<path d="M90.8652 13.3594C90.8652 14.068 91.1467 14.7476 91.6478 15.2487C92.1489 15.7497 92.8285 16.0312 93.5371 16.0312C94.2457 16.0312 94.9253 15.7497 95.4264 15.2487C95.9275 14.7476 96.209 14.068 96.209 13.3594C96.209 12.6507 95.9275 11.9711 95.4264 11.4701C94.9253 10.969 94.2457 10.6875 93.5371 10.6875C92.8285 10.6875 92.1489 10.969 91.6478 11.4701C91.1467 11.9711 90.8652 12.6507 90.8652 13.3594Z" fill="black"/>
<path d="M64.1465 24.0469C64.1465 24.7555 64.428 25.4351 64.9291 25.9362C65.4301 26.4372 66.1097 26.7188 66.8184 26.7188C67.527 26.7188 68.2066 26.4372 68.7077 25.9362C69.2087 25.4351 69.4902 24.7555 69.4902 24.0469C69.4902 23.3382 69.2087 22.6586 68.7077 22.1576C68.2066 21.6565 67.527 21.375 66.8184 21.375C66.1097 21.375 65.4301 21.6565 64.9291 22.1576C64.428 22.6586 64.1465 23.3382 64.1465 24.0469Z" fill="black"/>
<path d="M69.4902 13.3594C69.4902 14.068 69.7717 14.7476 70.2728 15.2487C70.7739 15.7497 71.4535 16.0312 72.1621 16.0312C72.8707 16.0312 73.5503 15.7497 74.0514 15.2487C74.5525 14.7476 74.834 14.068 74.834 13.3594C74.834 12.6507 74.5525 11.9711 74.0514 11.4701C73.5503 10.969 72.8707 10.6875 72.1621 10.6875C71.4535 10.6875 70.7739 10.969 70.2728 11.4701C69.7717 11.9711 69.4902 12.6507 69.4902 13.3594Z" fill="black"/>
<path d="M37.4277 13.3594C37.4277 14.068 37.7092 14.7476 38.2103 15.2487C38.7114 15.7497 39.391 16.0312 40.0996 16.0312C40.8082 16.0312 41.4878 15.7497 41.9889 15.2487C42.49 14.7476 42.7715 14.068 42.7715 13.3594C42.7715 12.6507 42.49 11.9711 41.9889 11.4701C41.4878 10.969 40.8082 10.6875 40.0996 10.6875C39.391 10.6875 38.7114 10.969 38.2103 11.4701C37.7092 11.9711 37.4277 12.6507 37.4277 13.3594Z" fill="black"/>
<path d="M128.214 42L112.886 57.8337C112.392 58.3449 111.805 58.7504 111.159 59.0271C110.514 59.3038 109.821 59.4462 109.122 59.4462C108.423 59.4462 107.73 59.3038 107.085 59.0271C106.439 58.7504 105.852 58.3449 105.358 57.8337L90.0302 42H86L105.736 62.3875C106.23 62.8987 106.817 63.3042 107.463 63.5809C108.108 63.8576 108.801 64 109.5 64C110.199 64 110.892 63.8576 111.537 63.5809C112.183 63.3042 112.77 62.8987 113.264 62.3875L133 42H128.214Z" fill="black"/>
</svg>
