<svg width="161" height="64" viewBox="0 0 161 64" fill="none" xmlns="http://www.w3.org/2000/svg">
<path d="M0 36.5938C0 43.68 2.815 50.476 7.82574 55.4868C10.3068 57.9678 13.2523 59.9359 16.4939 61.2787C19.7356 62.6214 23.21 63.3125 26.7188 63.3125H133.594C140.68 63.3125 147.476 60.4975 152.487 55.4868C157.497 50.476 160.312 43.68 160.312 36.5938H0Z" fill="#E29460"/>
<path d="M133.594 57.9688H26.7188C20.5602 57.9688 14.5907 55.8413 9.82026 51.9463C5.04984 48.0513 1.77143 42.6279 0.539719 36.5938H0C0 43.68 2.815 50.476 7.82574 55.4868C10.3068 57.9678 13.2523 59.9359 16.4939 61.2787C19.7356 62.6214 23.21 63.3125 26.7188 63.3125H133.594C140.68 63.3125 147.476 60.4975 152.487 55.4868C157.497 50.476 160.312 43.68 160.312 36.5938H159.773C158.541 42.6279 155.263 48.0513 150.492 51.9463C145.722 55.8413 139.752 57.9688 133.594 57.9688Z" fill="black"/>
<path d="M80.1777 0C37.4277 0 0.0214844 16.0312 0.0214844 37.4062H160.334C160.334 16.0312 122.928 0 80.1777 0Z" fill="#E29460"/>
<path d="M95.0938 19.0156C95.0938 19.7243 95.3752 20.4039 95.8763 20.9049C96.3774 21.406 97.057 21.6875 97.7656 21.6875C98.4743 21.6875 99.1539 21.406 99.6549 20.9049C100.156 20.4039 100.438 19.7243 100.438 19.0156C100.438 18.307 100.156 17.6274 99.6549 17.1263C99.1539 16.6253 98.4743 16.3437 97.7656 16.3438C97.057 16.3437 96.3774 16.6253 95.8763 17.1263C95.3752 17.6274 95.0938 18.307 95.0938 19.0156Z" fill="black"/>
<path d="M73.7188 13.6719C73.7188 14.3805 74.0002 15.0601 74.5013 15.5612C75.0024 16.0622 75.682 16.3438 76.3906 16.3438C77.0993 16.3438 77.7789 16.0622 78.2799 15.5612C78.781 15.0601 79.0625 14.3805 79.0625 13.6719C79.0625 12.9632 78.781 12.2836 78.2799 11.7826C77.7789 11.2815 77.0993 11 76.3906 11C75.682 11 75.0024 11.2815 74.5013 11.7826C74.0002 12.2836 73.7188 12.9632 73.7188 13.6719Z" fill="black"/>
<path d="M47 24.3594C47 25.068 47.2815 25.7476 47.7826 26.2487C48.2837 26.7497 48.9632 27.0312 49.6719 27.0312C50.3805 27.0312 51.0601 26.7497 51.5612 26.2487C52.0623 25.7476 52.3438 25.068 52.3438 24.3594C52.3438 23.6507 52.0623 22.9711 51.5612 22.4701C51.0601 21.969 50.3805 21.6875 49.6719 21.6875C48.9632 21.6875 48.2837 21.969 47.7826 22.4701C47.2815 22.9711 47 23.6507 47 24.3594Z" fill="black"/>
<path d="M52.3438 13.6719C52.3438 14.3805 52.6253 15.0601 53.1263 15.5612C53.6274 16.0622 54.307 16.3438 55.0156 16.3438C55.7243 16.3438 56.4039 16.0622 56.9049 15.5612C57.406 15.0601 57.6875 14.3805 57.6875 13.6719C57.6875 12.9632 57.406 12.2836 56.9049 11.7826C56.4039 11.2815 55.7243 11 55.0156 11C54.307 11 53.6274 11.2815 53.1263 11.7826C52.6253 12.2836 52.3438 12.9632 52.3438 13.6719Z" fill="black"/>
<path d="M108.281 13.6719C108.281 14.3805 108.563 15.0601 109.064 15.5612C109.565 16.0622 110.244 16.3438 110.953 16.3438C111.662 16.3438 112.341 16.0622 112.842 15.5612C113.344 15.0601 113.625 14.3805 113.625 13.6719C113.625 12.9632 113.344 12.2836 112.842 11.7826C112.341 11.2815 111.662 11 110.953 11C110.244 11 109.565 11.2815 109.064 11.7826C108.563 12.2836 108.281 12.9632 108.281 13.6719Z" fill="black"/>
</svg>
