<svg width="171" height="107" viewBox="0 0 171 107" fill="none" xmlns="http://www.w3.org/2000/svg">
<path d="M5.34375 79.5938C5.34375 86.68 8.15875 93.476 13.1695 98.4868C15.6506 100.968 18.596 102.936 21.8377 104.279C25.0793 105.621 28.5537 106.312 32.0625 106.312H138.938C146.024 106.312 152.82 103.497 157.831 98.4868C162.841 93.476 165.656 86.68 165.656 79.5938H5.34375Z" fill="#E29460"/>
<path d="M138.938 100.969H32.0625C25.9039 100.969 19.9344 98.8413 15.164 94.9463C10.3936 91.0513 7.11518 85.6279 5.88347 79.5938H5.34375C5.34375 86.68 8.15875 93.476 13.1695 98.4868C15.6506 100.968 18.596 102.936 21.8377 104.279C25.0793 105.621 28.5537 106.312 32.0625 106.312H138.938C146.024 106.312 152.82 103.497 157.831 98.4868C162.841 93.476 165.656 86.68 165.656 79.5938H165.117C163.885 85.6279 160.606 91.0513 155.836 94.9463C151.066 98.8413 145.096 100.969 138.938 100.969Z" fill="black"/>
<path d="M160.312 42.1875H10.6875C7.853 42.1875 5.13459 43.3135 3.1303 45.3178C1.126 47.3221 0 50.0405 0 52.875C0 55.7095 1.126 58.4279 3.1303 60.4322C5.13459 62.4365 7.853 63.5625 10.6875 63.5625H160.312C163.147 63.5625 165.865 62.4365 167.87 60.4322C169.874 58.4279 171 55.7095 171 52.875C171 50.0405 169.874 47.3221 167.87 45.3178C165.865 43.3135 163.147 42.1875 160.312 42.1875Z" fill="#EF4D4D"/>
<path d="M160.312 58.2188H10.6875C8.32337 58.2138 6.0278 57.424 4.16115 55.9732C2.29449 54.5224 0.962428 52.4929 0.374063 50.2031C0.154969 51.0688 0 51.9505 0 52.875C0 55.7095 1.126 58.4279 3.1303 60.4322C5.13459 62.4365 7.853 63.5625 10.6875 63.5625H160.312C163.147 63.5625 165.865 62.4365 167.87 60.4322C169.874 58.4279 171 55.7095 171 52.875C171 51.9452 170.845 51.0635 170.626 50.2031C170.038 52.4933 168.707 54.5234 166.84 55.9743C164.973 57.4252 162.677 58.2147 160.312 58.2188Z" fill="black"/>
<path d="M5.34375 68.9062H165.656V74.25H5.34375V68.9062Z" fill="#469FCC"/>
<path d="M67.6357 68.5273L46.5279 89.6352C46.0321 90.1318 45.4432 90.5259 44.7949 90.7947C44.1466 91.0636 43.4517 91.2019 42.7499 91.2019C42.0481 91.2019 41.3532 91.0636 40.7049 90.7947C40.0566 90.5259 39.4677 90.1318 38.9719 89.6352L17.8641 68.5273H13.8188L39.3513 94.0598C39.8471 94.5565 40.436 94.9505 41.0843 95.2193C41.7326 95.4882 42.4275 95.6266 43.1293 95.6266C43.8311 95.6266 44.5261 95.4882 45.1743 95.2193C45.8226 94.9505 46.4115 94.5565 46.9073 94.0598L72.4398 68.5273H67.6357Z" fill="black"/>
<path d="M38.9721 89.6352C39.4679 90.1318 40.0568 90.5259 40.7051 90.7947C41.3534 91.0636 42.0483 91.2019 42.7501 91.2019C43.4519 91.2019 44.1468 91.0636 44.7951 90.7947C45.4434 90.5259 46.0323 90.1318 46.5281 89.6352L67.6359 68.5273H17.8643L38.9721 89.6352ZM95.2685 68.5273L110.653 83.912C111.149 84.4087 111.738 84.8027 112.386 85.0716C113.034 85.3404 113.729 85.4788 114.431 85.4788C115.133 85.4788 115.828 85.3404 116.476 85.0716C117.124 84.8027 117.713 84.4087 118.209 83.912L133.594 68.5273H95.2685Z" fill="#EDD87E"/>
<path d="M133.371 68L117.986 83.5759C117.49 84.0787 116.901 84.4776 116.253 84.7498C115.605 85.022 114.91 85.1621 114.208 85.1621C113.506 85.1621 112.811 85.022 112.163 84.7498C111.515 84.4776 110.926 84.0787 110.43 83.5759L95.0452 68H91L110.809 88.0555C111.305 88.5583 111.894 88.9573 112.542 89.2295C113.191 89.5017 113.886 89.6418 114.587 89.6418C115.289 89.6418 115.984 89.5017 116.632 89.2295C117.281 88.9573 117.87 88.5583 118.365 88.0555L138.175 68H133.371Z" fill="black"/>
<path d="M85.5215 0C42.7715 0 5.36523 16.0312 5.36523 37.4062H165.678C165.678 16.0312 128.271 0 85.5215 0Z" fill="#E29460"/>
<path d="M117.584 18.7031C117.584 19.4118 117.865 20.0914 118.367 20.5924C118.868 21.0935 119.547 21.375 120.256 21.375C120.964 21.375 121.644 21.0935 122.145 20.5924C122.646 20.0914 122.928 19.4118 122.928 18.7031C122.928 17.9945 122.646 17.3149 122.145 16.8138C121.644 16.3128 120.964 16.0312 120.256 16.0313C119.547 16.0312 118.868 16.3128 118.367 16.8138C117.865 17.3149 117.584 17.9945 117.584 18.7031Z" fill="black"/>
<path d="M96.209 13.3594C96.209 14.068 96.4905 14.7476 96.9916 15.2487C97.4926 15.7497 98.1722 16.0312 98.8809 16.0312C99.5895 16.0312 100.269 15.7497 100.77 15.2487C101.271 14.7476 101.553 14.068 101.553 13.3594C101.553 12.6507 101.271 11.9711 100.77 11.4701C100.269 10.969 99.5895 10.6875 98.8809 10.6875C98.1722 10.6875 97.4926 10.969 96.9916 11.4701C96.4905 11.9711 96.209 12.6507 96.209 13.3594Z" fill="black"/>
<path d="M69.4902 24.0469C69.4902 24.7555 69.7717 25.4351 70.2728 25.9362C70.7739 26.4372 71.4535 26.7188 72.1621 26.7188C72.8707 26.7188 73.5503 26.4372 74.0514 25.9362C74.5525 25.4351 74.834 24.7555 74.834 24.0469C74.834 23.3382 74.5525 22.6586 74.0514 22.1576C73.5503 21.6565 72.8707 21.375 72.1621 21.375C71.4535 21.375 70.7739 21.6565 70.2728 22.1576C69.7717 22.6586 69.4902 23.3382 69.4902 24.0469Z" fill="black"/>
<path d="M74.834 13.3594C74.834 14.068 75.1155 14.7476 75.6166 15.2487C76.1176 15.7497 76.7972 16.0312 77.5059 16.0312C78.2145 16.0312 78.8941 15.7497 79.3952 15.2487C79.8962 14.7476 80.1777 14.068 80.1777 13.3594C80.1777 12.6507 79.8962 11.9711 79.3952 11.4701C78.8941 10.969 78.2145 10.6875 77.5059 10.6875C76.7972 10.6875 76.1176 10.969 75.6166 11.4701C75.1155 11.9711 74.834 12.6507 74.834 13.3594Z" fill="black"/>
<path d="M42.7715 13.3594C42.7715 14.068 43.053 14.7476 43.5541 15.2487C44.0551 15.7497 44.7347 16.0312 45.4434 16.0312C46.152 16.0312 46.8316 15.7497 47.3327 15.2487C47.8337 14.7476 48.1152 14.068 48.1152 13.3594C48.1152 12.6507 47.8337 11.9711 47.3327 11.4701C46.8316 10.969 46.152 10.6875 45.4434 10.6875C44.7347 10.6875 44.0551 10.969 43.5541 11.4701C43.053 11.9711 42.7715 12.6507 42.7715 13.3594Z" fill="black"/>
</svg>
