<svg width="171" height="161" viewBox="0 0 171 161" fill="none" xmlns="http://www.w3.org/2000/svg">
<path d="M5.34375 133.594C5.34375 140.68 8.15875 147.476 13.1695 152.487C15.6506 154.968 18.596 156.936 21.8377 158.279C25.0793 159.621 28.5537 160.312 32.0625 160.312H138.938C146.024 160.312 152.82 157.497 157.831 152.487C162.841 147.476 165.656 140.68 165.656 133.594H5.34375Z" fill="#E29460"/>
<path d="M138.938 154.969H32.0625C25.9039 154.969 19.9344 152.841 15.164 148.946C10.3936 145.051 7.11518 139.628 5.88347 133.594H5.34375C5.34375 140.68 8.15875 147.476 13.1695 152.487C15.6506 154.968 18.596 156.936 21.8377 158.279C25.0793 159.621 28.5537 160.312 32.0625 160.312H138.938C146.024 160.312 152.82 157.497 157.831 152.487C162.841 147.476 165.656 140.68 165.656 133.594H165.117C163.885 139.628 160.606 145.051 155.836 148.946C151.066 152.841 145.096 154.969 138.938 154.969Z" fill="black"/>
<path d="M160.312 96.1875H10.6875C7.853 96.1875 5.13459 97.3135 3.1303 99.3178C1.126 101.322 0 104.04 0 106.875C0 109.71 1.126 112.428 3.1303 114.432C5.13459 116.436 7.853 117.562 10.6875 117.562H160.312C163.147 117.562 165.865 116.436 167.87 114.432C169.874 112.428 171 109.71 171 106.875C171 104.04 169.874 101.322 167.87 99.3178C165.865 97.3135 163.147 96.1875 160.312 96.1875Z" fill="#EF4D4D"/>
<path d="M160.312 112.219H10.6875C8.32337 112.214 6.0278 111.424 4.16115 109.973C2.29449 108.522 0.962428 106.493 0.374063 104.203C0.154969 105.069 0 105.951 0 106.875C0 109.71 1.126 112.428 3.1303 114.432C5.13459 116.436 7.853 117.562 10.6875 117.562H160.312C163.147 117.562 165.865 116.436 167.87 114.432C169.874 112.428 171 109.71 171 106.875C171 105.945 170.845 105.063 170.626 104.203C170.038 106.493 168.707 108.523 166.84 109.974C164.973 111.425 162.677 112.215 160.312 112.219Z" fill="black"/>
<path d="M160.312 53.4375H10.6875C7.853 53.4375 5.13459 54.5635 3.1303 56.5678C1.126 58.5721 0 61.2905 0 64.125C0 66.9595 1.126 69.6779 3.1303 71.6822C5.13459 73.6865 7.853 74.8125 10.6875 74.8125H160.312C163.147 74.8125 165.865 73.6865 167.87 71.6822C169.874 69.6779 171 66.9595 171 64.125C171 61.2905 169.874 58.5721 167.87 56.5678C165.865 54.5635 163.147 53.4375 160.312 53.4375Z" fill="#EF4D4D"/>
<path d="M160.312 69.4688H10.6875C8.32337 69.4638 6.0278 68.674 4.16115 67.2232C2.29449 65.7724 0.962428 63.7429 0.374063 61.4531C0.154969 62.3188 0 63.2005 0 64.125C0 66.9595 1.126 69.6779 3.1303 71.6822C5.13459 73.6865 7.853 74.8125 10.6875 74.8125H160.312C163.147 74.8125 165.865 73.6865 167.87 71.6822C169.874 69.6779 171 66.9595 171 64.125C171 63.1952 170.845 62.3135 170.626 61.4531C170.038 63.7433 168.707 65.7734 166.84 67.2243C164.973 68.6752 162.677 69.4647 160.312 69.4688Z" fill="black"/>
<path d="M5.34375 122.906H165.656V128.25H5.34375V122.906Z" fill="#469FCC"/>
<path d="M5.34375 80.1562H165.656V90.8438H5.34375V80.1562Z" fill="#EDD87E"/>
<path d="M67.6357 122.527L46.5279 143.635C46.0321 144.132 45.4432 144.526 44.7949 144.795C44.1466 145.064 43.4517 145.202 42.7499 145.202C42.0481 145.202 41.3532 145.064 40.7049 144.795C40.0566 144.526 39.4677 144.132 38.9719 143.635L17.8641 122.527H13.8188L39.3513 148.06C39.8471 148.556 40.436 148.95 41.0843 149.219C41.7326 149.488 42.4275 149.627 43.1293 149.627C43.8311 149.627 44.5261 149.488 45.1743 149.219C45.8226 148.95 46.4115 148.556 46.9073 148.06L72.4398 122.527H67.6357Z" fill="black"/>
<path d="M38.9721 143.635C39.4679 144.132 40.0568 144.526 40.7051 144.795C41.3534 145.064 42.0483 145.202 42.7501 145.202C43.4519 145.202 44.1468 145.064 44.7951 144.795C45.4434 144.526 46.0323 144.132 46.5281 143.635L67.6359 122.527H17.8643L38.9721 143.635ZM95.2685 122.527L110.653 137.912C111.149 138.409 111.738 138.803 112.386 139.072C113.034 139.34 113.729 139.479 114.431 139.479C115.133 139.479 115.828 139.34 116.476 139.072C117.124 138.803 117.713 138.409 118.209 137.912L133.594 122.527H95.2685Z" fill="#EDD87E"/>
<path d="M133.594 122.527L118.209 137.912C117.713 138.408 117.124 138.802 116.476 139.071C115.828 139.34 115.133 139.478 114.431 139.478C113.729 139.478 113.034 139.34 112.386 139.071C111.738 138.802 111.149 138.408 110.653 137.912L95.2684 122.527H91.2232L111.032 142.336C111.528 142.833 112.117 143.227 112.765 143.496C113.414 143.765 114.109 143.903 114.81 143.903C115.512 143.903 116.207 143.765 116.855 143.496C117.504 143.227 118.093 142.833 118.588 142.336L138.398 122.527H133.594ZM154.969 58.7813C145.35 58.7813 138.938 48.0938 138.938 48.0938C138.938 48.0938 128.25 58.7813 112.219 58.7813C96.1875 58.7813 85.5 48.0938 85.5 48.0938C85.5 48.0938 79.0875 58.7813 69.4688 58.7813C59.85 58.7813 53.4375 48.0938 53.4375 48.0938C53.4375 48.0938 42.75 58.7813 26.7188 58.7813C10.6875 58.7813 0 48.0938 0 48.0938V53.4375C0 53.4375 10.6875 64.125 26.7188 64.125C42.75 64.125 53.4375 53.4375 53.4375 53.4375C53.4375 53.4375 59.85 64.125 69.4688 64.125C79.0875 64.125 85.5 53.4375 85.5 53.4375C85.5 53.4375 96.1875 64.125 112.219 64.125C128.25 64.125 138.938 53.4375 138.938 53.4375C138.938 53.4375 145.35 64.125 154.969 64.125C164.587 64.125 171 53.4375 171 53.4375V48.0938C171 48.0938 164.587 58.7813 154.969 58.7813Z" fill="black"/>
<path d="M85.5215 0C42.7715 0 5.36523 16.0312 5.36523 37.4062H165.678C165.678 16.0312 128.271 0 85.5215 0Z" fill="#E29460"/>
<path d="M119 26.6719C119 27.3805 119.281 28.0601 119.783 28.5612C120.284 29.0622 120.963 29.3438 121.672 29.3438C122.381 29.3438 123.06 29.0622 123.561 28.5612C124.062 28.0601 124.344 27.3805 124.344 26.6719C124.344 25.9632 124.062 25.2836 123.561 24.7826C123.06 24.2815 122.381 24 121.672 24C120.963 24 120.284 24.2815 119.783 24.7826C119.281 25.2836 119 25.9632 119 26.6719Z" fill="black"/>
<path d="M96.209 13.3594C96.209 14.068 96.4905 14.7476 96.9916 15.2487C97.4926 15.7497 98.1722 16.0312 98.8809 16.0312C99.5895 16.0312 100.269 15.7497 100.77 15.2487C101.271 14.7476 101.553 14.068 101.553 13.3594C101.553 12.6507 101.271 11.9711 100.77 11.4701C100.269 10.969 99.5895 10.6875 98.8809 10.6875C98.1722 10.6875 97.4926 10.969 96.9916 11.4701C96.4905 11.9711 96.209 12.6507 96.209 13.3594Z" fill="black"/>
<path d="M69.4902 24.0469C69.4902 24.7555 69.7717 25.4351 70.2728 25.9362C70.7739 26.4372 71.4535 26.7188 72.1621 26.7188C72.8707 26.7188 73.5503 26.4372 74.0514 25.9362C74.5525 25.4351 74.834 24.7555 74.834 24.0469C74.834 23.3382 74.5525 22.6586 74.0514 22.1576C73.5503 21.6565 72.8707 21.375 72.1621 21.375C71.4535 21.375 70.7739 21.6565 70.2728 22.1576C69.7717 22.6586 69.4902 23.3382 69.4902 24.0469Z" fill="black"/>
<path d="M74.834 13.3594C74.834 14.068 75.1155 14.7476 75.6166 15.2487C76.1176 15.7497 76.7972 16.0312 77.5059 16.0312C78.2145 16.0312 78.8941 15.7497 79.3952 15.2487C79.8962 14.7476 80.1777 14.068 80.1777 13.3594C80.1777 12.6507 79.8962 11.9711 79.3952 11.4701C78.8941 10.969 78.2145 10.6875 77.5059 10.6875C76.7972 10.6875 76.1176 10.969 75.6166 11.4701C75.1155 11.9711 74.834 12.6507 74.834 13.3594Z" fill="black"/>
<path d="M42.7715 13.3594C42.7715 14.068 43.053 14.7476 43.5541 15.2487C44.0551 15.7497 44.7347 16.0312 45.4434 16.0312C46.152 16.0312 46.8316 15.7497 47.3327 15.2487C47.8337 14.7476 48.1152 14.068 48.1152 13.3594C48.1152 12.6507 47.8337 11.9711 47.3327 11.4701C46.8316 10.969 46.152 10.6875 45.4434 10.6875C44.7347 10.6875 44.0551 10.969 43.5541 11.4701C43.053 11.9711 42.7715 12.6507 42.7715 13.3594Z" fill="black"/>
<path d="M144.281 32.0625C128.25 32.0625 117.562 42.75 117.562 42.75C117.562 42.75 111.15 32.0625 101.531 32.0625C91.9125 32.0625 85.5 42.75 85.5 42.75C85.5 42.75 74.8125 32.0625 58.7812 32.0625C42.75 32.0625 32.0625 42.75 32.0625 42.75C32.0625 42.75 25.65 32.0625 16.0312 32.0625C6.4125 32.0625 0 42.75 0 42.75V48.0938C0 48.0938 10.6875 58.7812 26.7188 58.7812C42.75 58.7812 53.4375 48.0938 53.4375 48.0938C53.4375 48.0938 59.85 58.7812 69.4688 58.7812C79.0875 58.7812 85.5 48.0938 85.5 48.0938C85.5 48.0938 96.1875 58.7812 112.219 58.7812C128.25 58.7812 138.938 48.0938 138.938 48.0938C138.938 48.0938 145.35 58.7812 154.969 58.7812C164.587 58.7812 171 48.0938 171 48.0938V42.75C171 42.75 160.312 32.0625 144.281 32.0625Z" fill="#3AAD73"/>
</svg>
