<svg width="171" height="123" viewBox="0 0 171 123" fill="none" xmlns="http://www.w3.org/2000/svg">
<path d="M5.34375 95.5938C5.34375 102.68 8.15875 109.476 13.1695 114.487C15.6506 116.968 18.596 118.936 21.8377 120.279C25.0793 121.621 28.5537 122.312 32.0625 122.312H138.938C146.024 122.312 152.82 119.497 157.831 114.487C162.841 109.476 165.656 102.68 165.656 95.5938H5.34375Z" fill="#E29460"/>
<path d="M138.938 116.969H32.0625C25.9039 116.969 19.9344 114.841 15.164 110.946C10.3936 107.051 7.11518 101.628 5.88347 95.5938H5.34375C5.34375 102.68 8.15875 109.476 13.1695 114.487C15.6506 116.968 18.596 118.936 21.8377 120.279C25.0793 121.621 28.5537 122.312 32.0625 122.312H138.938C146.024 122.312 152.82 119.497 157.831 114.487C162.841 109.476 165.656 102.68 165.656 95.5938H165.117C163.885 101.628 160.606 107.051 155.836 110.946C151.066 114.841 145.096 116.969 138.938 116.969Z" fill="black"/>
<path d="M160.312 58.1875H10.6875C7.853 58.1875 5.13459 59.3135 3.1303 61.3178C1.126 63.3221 0 66.0405 0 68.875C0 71.7095 1.126 74.4279 3.1303 76.4322C5.13459 78.4365 7.853 79.5625 10.6875 79.5625H160.312C163.147 79.5625 165.865 78.4365 167.87 76.4322C169.874 74.4279 171 71.7095 171 68.875C171 66.0405 169.874 63.3221 167.87 61.3178C165.865 59.3135 163.147 58.1875 160.312 58.1875Z" fill="#EF4D4D"/>
<path d="M160.312 74.2188H10.6875C8.32337 74.2138 6.0278 73.424 4.16115 71.9732C2.29449 70.5224 0.962428 68.4929 0.374063 66.2031C0.154969 67.0688 0 67.9505 0 68.875C0 71.7095 1.126 74.4279 3.1303 76.4322C5.13459 78.4365 7.853 79.5625 10.6875 79.5625H160.312C163.147 79.5625 165.865 78.4365 167.87 76.4322C169.874 74.4279 171 71.7095 171 68.875C171 67.9452 170.845 67.0635 170.626 66.2031C170.038 68.4933 168.707 70.5234 166.84 71.9743C164.973 73.4252 162.677 74.2147 160.312 74.2188Z" fill="black"/>
<path d="M5.34375 84.9062H165.656V90.25H5.34375V84.9062Z" fill="#469FCC"/>
<path d="M5.34375 42.1562H165.656V52.8438H5.34375V42.1562Z" fill="#EDD87E"/>
<path d="M67.6357 84.5273L46.5279 105.635C46.0321 106.132 45.4432 106.526 44.7949 106.795C44.1466 107.064 43.4517 107.202 42.7499 107.202C42.0481 107.202 41.3532 107.064 40.7049 106.795C40.0566 106.526 39.4677 106.132 38.9719 105.635L17.8641 84.5273H13.8188L39.3513 110.06C39.8471 110.556 40.436 110.95 41.0843 111.219C41.7326 111.488 42.4275 111.627 43.1293 111.627C43.8311 111.627 44.5261 111.488 45.1743 111.219C45.8226 110.95 46.4115 110.556 46.9073 110.06L72.4398 84.5273H67.6357Z" fill="black"/>
<path d="M38.9721 105.635C39.4679 106.132 40.0568 106.526 40.7051 106.795C41.3534 107.064 42.0483 107.202 42.7501 107.202C43.4519 107.202 44.1468 107.064 44.7951 106.795C45.4434 106.526 46.0323 106.132 46.5281 105.635L67.6359 84.5273H17.8643L38.9721 105.635ZM95.2685 84.5273L110.653 99.912C111.149 100.409 111.738 100.803 112.386 101.072C113.034 101.34 113.729 101.479 114.431 101.479C115.133 101.479 115.828 101.34 116.476 101.072C117.124 100.803 117.713 100.409 118.209 99.912L133.594 84.5273H95.2685Z" fill="#EDD87E"/>
<path d="M134.371 84L118.986 99.5759C118.49 100.079 117.901 100.478 117.253 100.75C116.605 101.022 115.91 101.162 115.208 101.162C114.506 101.162 113.811 101.022 113.163 100.75C112.515 100.478 111.926 100.079 111.43 99.5759L96.0452 84H92L111.809 104.055C112.305 104.558 112.894 104.957 113.542 105.229C114.191 105.502 114.886 105.642 115.587 105.642C116.289 105.642 116.984 105.502 117.632 105.229C118.281 104.957 118.87 104.558 119.365 104.055L139.175 84H134.371Z" fill="black"/>
<path d="M85.5215 0C42.7715 0 5.36523 16.0312 5.36523 37.4062H165.678C165.678 16.0312 128.271 0 85.5215 0Z" fill="#E29460"/>
<path d="M117.584 18.7031C117.584 19.4118 117.865 20.0914 118.367 20.5924C118.868 21.0935 119.547 21.375 120.256 21.375C120.964 21.375 121.644 21.0935 122.145 20.5924C122.646 20.0914 122.928 19.4118 122.928 18.7031C122.928 17.9945 122.646 17.3149 122.145 16.8138C121.644 16.3128 120.964 16.0312 120.256 16.0313C119.547 16.0312 118.868 16.3128 118.367 16.8138C117.865 17.3149 117.584 17.9945 117.584 18.7031Z" fill="black"/>
<path d="M96.209 13.3594C96.209 14.068 96.4905 14.7476 96.9916 15.2487C97.4926 15.7497 98.1722 16.0312 98.8809 16.0312C99.5895 16.0312 100.269 15.7497 100.77 15.2487C101.271 14.7476 101.553 14.068 101.553 13.3594C101.553 12.6507 101.271 11.9711 100.77 11.4701C100.269 10.969 99.5895 10.6875 98.8809 10.6875C98.1722 10.6875 97.4926 10.969 96.9916 11.4701C96.4905 11.9711 96.209 12.6507 96.209 13.3594Z" fill="black"/>
<path d="M69.4902 24.0469C69.4902 24.7555 69.7717 25.4351 70.2728 25.9362C70.7739 26.4372 71.4535 26.7188 72.1621 26.7188C72.8707 26.7188 73.5503 26.4372 74.0514 25.9362C74.5525 25.4351 74.834 24.7555 74.834 24.0469C74.834 23.3382 74.5525 22.6586 74.0514 22.1576C73.5503 21.6565 72.8707 21.375 72.1621 21.375C71.4535 21.375 70.7739 21.6565 70.2728 22.1576C69.7717 22.6586 69.4902 23.3382 69.4902 24.0469Z" fill="black"/>
<path d="M74.834 13.3594C74.834 14.068 75.1155 14.7476 75.6166 15.2487C76.1176 15.7497 76.7972 16.0312 77.5059 16.0312C78.2145 16.0312 78.8941 15.7497 79.3952 15.2487C79.8962 14.7476 80.1777 14.068 80.1777 13.3594C80.1777 12.6507 79.8962 11.9711 79.3952 11.4701C78.8941 10.969 78.2145 10.6875 77.5059 10.6875C76.7972 10.6875 76.1176 10.969 75.6166 11.4701C75.1155 11.9711 74.834 12.6507 74.834 13.3594Z" fill="black"/>
<path d="M42.7715 13.3594C42.7715 14.068 43.053 14.7476 43.5541 15.2487C44.0551 15.7497 44.7347 16.0312 45.4434 16.0312C46.152 16.0312 46.8316 15.7497 47.3327 15.2487C47.8337 14.7476 48.1152 14.068 48.1152 13.3594C48.1152 12.6507 47.8337 11.9711 47.3327 11.4701C46.8316 10.969 46.152 10.6875 45.4434 10.6875C44.7347 10.6875 44.0551 10.969 43.5541 11.4701C43.053 11.9711 42.7715 12.6507 42.7715 13.3594Z" fill="black"/>
</svg>
