<svg width="161" height="80" viewBox="0 0 161 80" fill="none" xmlns="http://www.w3.org/2000/svg">
<path d="M0 52.5938C0 59.68 2.815 66.476 7.82574 71.4868C10.3068 73.9678 13.2523 75.9359 16.4939 77.2787C19.7356 78.6214 23.21 79.3125 26.7188 79.3125H133.594C140.68 79.3125 147.476 76.4975 152.487 71.4868C157.497 66.476 160.312 59.68 160.312 52.5938H0Z" fill="#E29460"/>
<path d="M133.594 73.9688H26.7188C20.5602 73.9688 14.5907 71.8413 9.82026 67.9463C5.04984 64.0513 1.77143 58.6279 0.539719 52.5938H0C0 59.68 2.815 66.476 7.82574 71.4868C10.3068 73.9678 13.2523 75.9359 16.4939 77.2787C19.7356 78.6214 23.21 79.3125 26.7188 79.3125H133.594C140.68 79.3125 147.476 76.4975 152.487 71.4868C157.497 66.476 160.312 59.68 160.312 52.5938H159.773C158.541 58.6279 155.263 64.0513 150.492 67.9463C145.722 71.8413 139.752 73.9688 133.594 73.9688Z" fill="black"/>
<path d="M0 41.9062H160.312V47.25H0V41.9062Z" fill="#469FCC"/>
<path d="M80.1777 0C37.4277 0 0.0214844 16.0312 0.0214844 37.4062H160.334C160.334 16.0312 122.928 0 80.1777 0Z" fill="#E29460"/>
<path d="M112.24 18.7031C112.24 19.4118 112.522 20.0914 113.023 20.5924C113.524 21.0935 114.203 21.375 114.912 21.375C115.621 21.375 116.3 21.0935 116.801 20.5924C117.302 20.0914 117.584 19.4118 117.584 18.7031C117.584 17.9945 117.302 17.3149 116.801 16.8138C116.3 16.3128 115.621 16.0312 114.912 16.0313C114.203 16.0312 113.524 16.3128 113.023 16.8138C112.522 17.3149 112.24 17.9945 112.24 18.7031Z" fill="black"/>
<path d="M90.8652 13.3594C90.8652 14.068 91.1467 14.7476 91.6478 15.2487C92.1489 15.7497 92.8285 16.0312 93.5371 16.0312C94.2457 16.0312 94.9253 15.7497 95.4264 15.2487C95.9275 14.7476 96.209 14.068 96.209 13.3594C96.209 12.6507 95.9275 11.9711 95.4264 11.4701C94.9253 10.969 94.2457 10.6875 93.5371 10.6875C92.8285 10.6875 92.1489 10.969 91.6478 11.4701C91.1467 11.9711 90.8652 12.6507 90.8652 13.3594Z" fill="black"/>
<path d="M64.1465 24.0469C64.1465 24.7555 64.428 25.4351 64.9291 25.9362C65.4301 26.4372 66.1097 26.7188 66.8184 26.7188C67.527 26.7188 68.2066 26.4372 68.7077 25.9362C69.2087 25.4351 69.4902 24.7555 69.4902 24.0469C69.4902 23.3382 69.2087 22.6586 68.7077 22.1576C68.2066 21.6565 67.527 21.375 66.8184 21.375C66.1097 21.375 65.4301 21.6565 64.9291 22.1576C64.428 22.6586 64.1465 23.3382 64.1465 24.0469Z" fill="black"/>
<path d="M69.4902 13.3594C69.4902 14.068 69.7717 14.7476 70.2728 15.2487C70.7739 15.7497 71.4535 16.0312 72.1621 16.0312C72.8707 16.0312 73.5503 15.7497 74.0514 15.2487C74.5525 14.7476 74.834 14.068 74.834 13.3594C74.834 12.6507 74.5525 11.9711 74.0514 11.4701C73.5503 10.969 72.8707 10.6875 72.1621 10.6875C71.4535 10.6875 70.7739 10.969 70.2728 11.4701C69.7717 11.9711 69.4902 12.6507 69.4902 13.3594Z" fill="black"/>
<path d="M37.4277 13.3594C37.4277 14.068 37.7092 14.7476 38.2103 15.2487C38.7114 15.7497 39.391 16.0312 40.0996 16.0312C40.8082 16.0312 41.4878 15.7497 41.9889 15.2487C42.49 14.7476 42.7715 14.068 42.7715 13.3594C42.7715 12.6507 42.49 11.9711 41.9889 11.4701C41.4878 10.969 40.8082 10.6875 40.0996 10.6875C39.391 10.6875 38.7114 10.969 38.2103 11.4701C37.7092 11.9711 37.4277 12.6507 37.4277 13.3594Z" fill="black"/>
</svg>
