<svg width="171" height="150" viewBox="0 0 171 150" fill="none" xmlns="http://www.w3.org/2000/svg">
<path d="M5.34375 122.594C5.34375 129.68 8.15875 136.476 13.1695 141.487C15.6506 143.968 18.596 145.936 21.8377 147.279C25.0793 148.621 28.5537 149.312 32.0625 149.312H138.938C146.024 149.312 152.82 146.497 157.831 141.487C162.841 136.476 165.656 129.68 165.656 122.594H5.34375Z" fill="#E29460"/>
<path d="M138.938 143.969H32.0625C25.9039 143.969 19.9344 141.841 15.164 137.946C10.3936 134.051 7.11518 128.628 5.88347 122.594H5.34375C5.34375 129.68 8.15875 136.476 13.1695 141.487C15.6506 143.968 18.596 145.936 21.8377 147.279C25.0793 148.621 28.5537 149.312 32.0625 149.312H138.938C146.024 149.312 152.82 146.497 157.831 141.487C162.841 136.476 165.656 129.68 165.656 122.594H165.117C163.885 128.628 160.606 134.051 155.836 137.946C151.066 141.841 145.096 143.969 138.938 143.969Z" fill="black"/>
<path d="M160.312 85.1875H10.6875C7.853 85.1875 5.13459 86.3135 3.1303 88.3178C1.126 90.3221 0 93.0405 0 95.875C0 98.7095 1.126 101.428 3.1303 103.432C5.13459 105.436 7.853 106.562 10.6875 106.562H160.312C163.147 106.562 165.865 105.436 167.87 103.432C169.874 101.428 171 98.7095 171 95.875C171 93.0405 169.874 90.3221 167.87 88.3178C165.865 86.3135 163.147 85.1875 160.312 85.1875Z" fill="#EF4D4D"/>
<path d="M160.312 101.219H10.6875C8.32337 101.214 6.0278 100.424 4.16115 98.9732C2.29449 97.5224 0.962428 95.4929 0.374063 93.2031C0.154969 94.0688 0 94.9505 0 95.875C0 98.7095 1.126 101.428 3.1303 103.432C5.13459 105.436 7.853 106.562 10.6875 106.562H160.312C163.147 106.562 165.865 105.436 167.87 103.432C169.874 101.428 171 98.7095 171 95.875C171 94.9452 170.845 94.0635 170.626 93.2031C170.038 95.4933 168.707 97.5234 166.84 98.9743C164.973 100.425 162.677 101.215 160.312 101.219Z" fill="black"/>
<path d="M160.312 42.4375H10.6875C7.853 42.4375 5.13459 43.5635 3.1303 45.5678C1.126 47.5721 0 50.2905 0 53.125C0 55.9595 1.126 58.6779 3.1303 60.6822C5.13459 62.6865 7.853 63.8125 10.6875 63.8125H160.312C163.147 63.8125 165.865 62.6865 167.87 60.6822C169.874 58.6779 171 55.9595 171 53.125C171 50.2905 169.874 47.5721 167.87 45.5678C165.865 43.5635 163.147 42.4375 160.312 42.4375Z" fill="#EF4D4D"/>
<path d="M160.312 58.4688H10.6875C8.32337 58.4638 6.0278 57.674 4.16115 56.2232C2.29449 54.7724 0.962428 52.7429 0.374063 50.4531C0.154969 51.3188 0 52.2005 0 53.125C0 55.9595 1.126 58.6779 3.1303 60.6822C5.13459 62.6865 7.853 63.8125 10.6875 63.8125H160.312C163.147 63.8125 165.865 62.6865 167.87 60.6822C169.874 58.6779 171 55.9595 171 53.125C171 52.1952 170.845 51.3135 170.626 50.4531C170.038 52.7433 168.707 54.7734 166.84 56.2243C164.973 57.6752 162.677 58.4647 160.312 58.4688Z" fill="black"/>
<path d="M5.34375 111.906H165.656V117.25H5.34375V111.906Z" fill="#469FCC"/>
<path d="M5.34375 69.1562H165.656V79.8438H5.34375V69.1562Z" fill="#EDD87E"/>
<path d="M67.6357 111.527L46.5279 132.635C46.0321 133.132 45.4432 133.526 44.7949 133.795C44.1466 134.064 43.4517 134.202 42.7499 134.202C42.0481 134.202 41.3532 134.064 40.7049 133.795C40.0566 133.526 39.4677 133.132 38.9719 132.635L17.8641 111.527H13.8188L39.3513 137.06C39.8471 137.556 40.436 137.95 41.0843 138.219C41.7326 138.488 42.4275 138.627 43.1293 138.627C43.8311 138.627 44.5261 138.488 45.1743 138.219C45.8226 137.95 46.4115 137.556 46.9073 137.06L72.4398 111.527H67.6357Z" fill="black"/>
<path d="M38.9721 132.635C39.4679 133.132 40.0568 133.526 40.7051 133.795C41.3534 134.064 42.0483 134.202 42.7501 134.202C43.4519 134.202 44.1468 134.064 44.7951 133.795C45.4434 133.526 46.0323 133.132 46.5281 132.635L67.6359 111.527H17.8643L38.9721 132.635ZM95.2685 111.527L110.653 126.912C111.149 127.409 111.738 127.803 112.386 128.072C113.034 128.34 113.729 128.479 114.431 128.479C115.133 128.479 115.828 128.34 116.476 128.072C117.124 127.803 117.713 127.409 118.209 126.912L133.594 111.527H95.2685Z" fill="#EDD87E"/>
<path d="M133.371 111L117.986 126.576C117.49 127.079 116.901 127.478 116.253 127.75C115.605 128.022 114.91 128.162 114.208 128.162C113.506 128.162 112.811 128.022 112.163 127.75C111.515 127.478 110.926 127.079 110.43 126.576L95.0452 111H91L110.809 131.055C111.305 131.558 111.894 131.957 112.542 132.229C113.191 132.502 113.886 132.642 114.587 132.642C115.289 132.642 115.984 132.502 116.632 132.229C117.281 131.957 117.87 131.558 118.365 131.055L138.175 111H133.371Z" fill="black"/>
<path d="M85.5215 0C42.7715 0 5.36523 16.0312 5.36523 37.4062H165.678C165.678 16.0312 128.271 0 85.5215 0Z" fill="#E29460"/>
<path d="M117.584 18.7031C117.584 19.4118 117.865 20.0914 118.367 20.5924C118.868 21.0935 119.547 21.375 120.256 21.375C120.964 21.375 121.644 21.0935 122.145 20.5924C122.646 20.0914 122.928 19.4118 122.928 18.7031C122.928 17.9945 122.646 17.3149 122.145 16.8138C121.644 16.3128 120.964 16.0312 120.256 16.0313C119.547 16.0312 118.868 16.3128 118.367 16.8138C117.865 17.3149 117.584 17.9945 117.584 18.7031Z" fill="black"/>
<path d="M96.209 13.3594C96.209 14.068 96.4905 14.7476 96.9916 15.2487C97.4926 15.7497 98.1722 16.0312 98.8809 16.0312C99.5895 16.0312 100.269 15.7497 100.77 15.2487C101.271 14.7476 101.553 14.068 101.553 13.3594C101.553 12.6507 101.271 11.9711 100.77 11.4701C100.269 10.969 99.5895 10.6875 98.8809 10.6875C98.1722 10.6875 97.4926 10.969 96.9916 11.4701C96.4905 11.9711 96.209 12.6507 96.209 13.3594Z" fill="black"/>
<path d="M69.4902 24.0469C69.4902 24.7555 69.7717 25.4351 70.2728 25.9362C70.7739 26.4372 71.4535 26.7188 72.1621 26.7188C72.8707 26.7188 73.5503 26.4372 74.0514 25.9362C74.5525 25.4351 74.834 24.7555 74.834 24.0469C74.834 23.3382 74.5525 22.6586 74.0514 22.1576C73.5503 21.6565 72.8707 21.375 72.1621 21.375C71.4535 21.375 70.7739 21.6565 70.2728 22.1576C69.7717 22.6586 69.4902 23.3382 69.4902 24.0469Z" fill="black"/>
<path d="M74.834 13.3594C74.834 14.068 75.1155 14.7476 75.6166 15.2487C76.1176 15.7497 76.7972 16.0312 77.5059 16.0312C78.2145 16.0312 78.8941 15.7497 79.3952 15.2487C79.8962 14.7476 80.1777 14.068 80.1777 13.3594C80.1777 12.6507 79.8962 11.9711 79.3952 11.4701C78.8941 10.969 78.2145 10.6875 77.5059 10.6875C76.7972 10.6875 76.1176 10.969 75.6166 11.4701C75.1155 11.9711 74.834 12.6507 74.834 13.3594Z" fill="black"/>
<path d="M42.7715 13.3594C42.7715 14.068 43.053 14.7476 43.5541 15.2487C44.0551 15.7497 44.7347 16.0312 45.4434 16.0312C46.152 16.0312 46.8316 15.7497 47.3327 15.2487C47.8337 14.7476 48.1152 14.068 48.1152 13.3594C48.1152 12.6507 47.8337 11.9711 47.3327 11.4701C46.8316 10.969 46.152 10.6875 45.4434 10.6875C44.7347 10.6875 44.0551 10.969 43.5541 11.4701C43.053 11.9711 42.7715 12.6507 42.7715 13.3594Z" fill="black"/>
</svg>
