<svg width="56" height="56" viewBox="0 0 56 56" fill="none" xmlns="http://www.w3.org/2000/svg">
<g clip-path="url(#clip0_1009_474)">
<path d="M28 56C43.464 56 56 43.464 56 28C56 12.536 43.464 0 28 0C12.536 0 0 12.536 0 28C0 43.464 12.536 56 28 56Z" fill="#0098EA"/>
<path d="M37.5602 15.6279H18.4385C14.9227 15.6279 12.6943 19.4204 14.4631 22.4863L26.2643 42.9411C27.0344 44.2767 28.9643 44.2767 29.7344 42.9411L41.538 22.4863C43.3044 19.4253 41.076 15.6279 37.5626 15.6279H37.5602ZM26.2547 36.807L23.6846 31.8329L17.4832 20.7416C17.0741 20.0317 17.5794 19.122 18.4361 19.122H26.2523V36.8094L26.2547 36.807ZM38.5107 20.7392L32.3117 31.8353L29.7416 36.807V19.1196H37.5578C38.4145 19.1196 38.9198 20.0293 38.5107 20.7392Z" fill="white"/>
</g>
<defs>
<clipPath id="clip0_1009_474">
<rect width="56" height="56" fill="white"/>
</clipPath>
</defs>
</svg>
